<?xml version="1.0" encoding="UTF-8" standalone="no"?>
<svg
   xmlns:dc="http://purl.org/dc/elements/1.1/"
   xmlns:cc="http://creativecommons.org/ns#"
   xmlns:rdf="http://www.w3.org/1999/02/22-rdf-syntax-ns#"
   xmlns:svg="http://www.w3.org/2000/svg"
   xmlns="http://www.w3.org/2000/svg"
   id="svg2"
   xml:space="preserve"
   enable-background="new 0 0 841.89 595.28"
   viewBox="0 0 610.98498 282.65398"
   height="282.65399"
   width="610.98499"
   y="0px"
   x="0px"
   version="1.1"><metadata
     id="metadata360"><rdf:RDF><cc:Work
         rdf:about=""><dc:format>image/svg+xml</dc:format><dc:type
           rdf:resource="http://purl.org/dc/dcmitype/StillImage" /><dc:title></dc:title></cc:Work></rdf:RDF></metadata><defs
     id="defs358" /><g
     transform="translate(0,-312.62603)"
     id="Layer_1"><g
       transform="translate(-115.45275,165.30643)"
       id="g204"><polygon
         style="fill:#ffffff;stroke:#231f20;stroke-width:1.73450005;stroke-linecap:round;stroke-linejoin:round;stroke-miterlimit:10"
         id="polygon206"
         points="586.18,228.405 586.18,268.655 551.363,288.724 533.985,288.68 533.985,298.736 516.578,308.772 429.578,258.544 429.578,218.359 516.551,268.297 533.985,258.538 516.696,248.565 551.439,248.462 "
         stroke-miterlimit="10" /><polygon
         style="fill:#ffffff;stroke:#1a171b;stroke-width:1.73450005;stroke-linecap:round;stroke-linejoin:round;stroke-miterlimit:10"
         id="polygon208"
         points="568.988,338.986 568.971,298.794 603.745,318.87 621.188,308.85 621.188,328.922 655.972,349.023 725.57,308.84 725.57,349.023 655.969,389.206 "
         stroke-miterlimit="10" /><polygon
         style="fill:#ffffff;stroke:#1a171b;stroke-width:1.73450005;stroke-linecap:round;stroke-linejoin:round;stroke-miterlimit:10"
         id="polygon210"
         points="359.981,318.964 359.981,278.783 412.195,308.628 447.462,308.628 481.78,288.68 481.78,329.011 446.98,349.102 412.18,349.102 "
         stroke-miterlimit="10" /><polygon
         style="fill:#ffffff;stroke:#1a171b;stroke-width:1.73450005;stroke-linecap:round;stroke-linejoin:round;stroke-miterlimit:10"
         id="polygon212"
         points="238.117,248.646 203.319,228.553 203.319,188.371 238.121,208.463 272.918,208.463 307.718,228.553 342.519,208.463 342.519,248.646 307.719,268.735 272.918,248.646 "
         stroke-miterlimit="10" /><g
         id="g214"><polygon
           style="fill:#ffffff;stroke:#1a171b;stroke-width:1.73450005;stroke-linecap:round;stroke-linejoin:round;stroke-miterlimit:10"
           id="polygon216"
           points="238.121,268.592 238.121,308.919 203.319,329.011 116.32,278.783 116.32,238.452 203.319,288.68 "
           stroke-miterlimit="10" /><polygon
           style="fill:#ffffff;stroke:#1a171b;stroke-width:1.73450005;stroke-linecap:round;stroke-linejoin:round;stroke-miterlimit:10"
           id="polygon218"
           points="220.593,258.764 220.593,238.526 203.319,248.499 "
           stroke-miterlimit="10" /></g><g
         id="g220"><polygon
           style="fill:#ffffff;stroke:#1a171b;stroke-width:1.73450005;stroke-linecap:round;stroke-linejoin:round;stroke-miterlimit:10"
           id="polygon222"
           points="272.98,369.193 272.982,329.011 325.183,358.563 359.98,358.563 394.781,338.472 394.781,379.237 359.981,399.331 325.183,399.331 "
           stroke-miterlimit="10" /><polygon
           style="fill:#ffffff;stroke:#1a171b;stroke-width:1.73450005;stroke-linecap:round;stroke-linejoin:round;stroke-miterlimit:10"
           id="polygon224"
           points="359.98,298.875 359.98,318.964 342.58,329.011 325.183,318.966 "
           stroke-miterlimit="10" /></g><g
         id="g226"><polygon
           style="fill:#ffffff;stroke:#1a171b;stroke-width:1.73450005;stroke-linecap:round;stroke-linejoin:round;stroke-miterlimit:10"
           id="polygon228"
           points="499.388,398.955 499.389,358.773 551.589,388.325 586.387,388.325 621.188,368.233 621.188,409 586.389,429.094 551.589,429.094 "
           stroke-miterlimit="10" /><polygon
           style="fill:#ffffff;stroke:#1a171b;stroke-width:1.73450005;stroke-linecap:round;stroke-linejoin:round;stroke-miterlimit:10"
           id="polygon230"
           points="586.387,328.637 586.387,348.726 568.986,358.773 551.589,348.728 "
           stroke-miterlimit="10" /></g><line
         style="fill:none;stroke:#1a171b;stroke-width:1.73450005;stroke-linecap:round;stroke-linejoin:round;stroke-miterlimit:10"
         id="line232"
         y2="327.56"
         x2="203.319"
         y1="288.67999"
         x1="203.319"
         stroke-miterlimit="10" /><line
         style="fill:none;stroke:#1a171b;stroke-width:1.73450005;stroke-linecap:round;stroke-linejoin:round;stroke-miterlimit:10"
         id="line234"
         y2="248.646"
         x2="238.121"
         y1="208.463"
         x1="238.121"
         stroke-miterlimit="10" /><line
         style="fill:none;stroke:#1a171b;stroke-width:1.73450005;stroke-linecap:round;stroke-linejoin:round;stroke-miterlimit:10"
         id="line236"
         y2="248.646"
         x2="272.918"
         y1="208.463"
         x1="272.918"
         stroke-miterlimit="10" /><line
         style="fill:none;stroke:#1a171b;stroke-width:1.73450005;stroke-linecap:round;stroke-linejoin:round;stroke-miterlimit:10"
         id="line238"
         y2="268.73499"
         x2="307.71799"
         y1="228.55299"
         x1="307.71799"
         stroke-miterlimit="10" /><line
         style="fill:none;stroke:#1a171b;stroke-width:1.73450005;stroke-linecap:round;stroke-linejoin:round;stroke-miterlimit:10"
         id="line240"
         y2="399.33099"
         x2="325.18301"
         y1="358.56299"
         x1="325.18301"
         stroke-miterlimit="10" /><line
         style="fill:none;stroke:#1a171b;stroke-width:1.73450005;stroke-linecap:round;stroke-linejoin:round;stroke-miterlimit:10"
         id="line242"
         y2="399.33099"
         x2="359.98001"
         y1="358.56299"
         x1="359.98001"
         stroke-miterlimit="10" /><line
         style="fill:none;stroke:#1a171b;stroke-width:1.73450005;stroke-linecap:round;stroke-linejoin:round;stroke-miterlimit:10"
         id="line244"
         y2="429.09399"
         x2="551.58899"
         y1="388.32501"
         x1="551.58899"
         stroke-miterlimit="10" /><line
         style="fill:none;stroke:#1a171b;stroke-width:1.73450005;stroke-linecap:round;stroke-linejoin:round;stroke-miterlimit:10"
         id="line246"
         y2="429.09399"
         x2="586.38702"
         y1="388.32501"
         x1="586.38702"
         stroke-miterlimit="10" /><line
         style="fill:none;stroke:#1a171b;stroke-width:1.73450005;stroke-linecap:round;stroke-linejoin:round;stroke-miterlimit:10"
         id="line248"
         y2="349.396"
         x2="412.19501"
         y1="308.62799"
         x1="412.19501"
         stroke-miterlimit="10" /><line
         style="fill:none;stroke:#1a171b;stroke-width:1.73450005;stroke-linecap:round;stroke-linejoin:round;stroke-miterlimit:10"
         id="line250"
         y2="349.396"
         x2="447.46201"
         y1="308.62799"
         x1="447.46201"
         stroke-miterlimit="10" /><line
         style="fill:none;stroke:#1a171b;stroke-width:1.73450005;stroke-linecap:round;stroke-linejoin:round;stroke-miterlimit:10"
         id="line252"
         y2="389.20599"
         x2="655.96899"
         y1="349.022"
         x1="655.96899"
         stroke-miterlimit="10" /><line
         style="fill:none;stroke:#1a171b;stroke-width:1.73450005;stroke-linecap:round;stroke-linejoin:round;stroke-miterlimit:10"
         id="line254"
         y2="369.11401"
         x2="621.18799"
         y1="328.92999"
         x1="621.18799"
         stroke-miterlimit="10" /><line
         style="fill:none;stroke:#1a171b;stroke-width:1.73450005;stroke-linecap:round;stroke-linejoin:round;stroke-miterlimit:10"
         id="line256"
         y2="358.98999"
         x2="603.745"
         y1="318.806"
         x1="603.745"
         stroke-miterlimit="10" /><line
         style="fill:none;stroke:#1a171b;stroke-width:1.73450005;stroke-linecap:round;stroke-linejoin:round;stroke-miterlimit:10"
         id="line258"
         y2="309.065"
         x2="516.55103"
         y1="268.297"
         x1="516.55103"
         stroke-miterlimit="10" /><line
         style="fill:none;stroke:#1a171b;stroke-width:1.73450005;stroke-linecap:round;stroke-linejoin:round;stroke-miterlimit:10"
         id="line260"
         y2="298.73599"
         x2="533.98499"
         y1="258.53799"
         x1="533.98499"
         stroke-miterlimit="10" /><line
         style="fill:none;stroke:#1a171b;stroke-width:1.73450005;stroke-linecap:round;stroke-linejoin:round;stroke-miterlimit:10"
         id="line262"
         y2="288.53201"
         x2="551.43903"
         y1="248.46201"
         x1="551.43903"
         stroke-miterlimit="10" /><polygon
         style="fill:#ffffff;stroke:#1a171b;stroke-width:1.73450005;stroke-linecap:round;stroke-linejoin:round;stroke-miterlimit:10"
         id="polygon264"
         points="395.15,258.729 395.15,278.82 412.197,289.069 446.998,289.069 446.998,268.986 429.578,258.544 "
         stroke-miterlimit="10" /><line
         style="fill:none;stroke:#1a171b;stroke-width:1.73450005;stroke-linecap:round;stroke-linejoin:round;stroke-miterlimit:10"
         id="line266"
         y2="288.68201"
         x2="429.578"
         y1="258.54401"
         x1="429.578"
         stroke-miterlimit="10" /><polygon
         style="fill:#ffffff;stroke:#1a171b;stroke-width:1.73450005;stroke-linecap:round;stroke-linejoin:round;stroke-miterlimit:10"
         id="polygon268"
         points="482.216,188.371 482.216,198.359 499.388,198.359 "
         stroke-miterlimit="10" /><polygon
         style="fill:#b4beff;stroke:#1a171b;stroke-width:1.73450005;stroke-linecap:round;stroke-linejoin:round;stroke-miterlimit:10"
         id="polygon270"
         points="464.841,198.27 429.578,218.359 516.576,268.588 533.985,258.538 516.696,248.565 551.439,248.462 586.18,228.405 499.55,178.362 482.216,188.371 499.55,198.452 "
         stroke-miterlimit="10" /><polygon
         style="fill:#b4beff;stroke:#1a171b;stroke-width:1.73450005;stroke-linecap:round;stroke-linejoin:round;stroke-miterlimit:10"
         id="polygon272"
         points="116.32,238.452 203.319,288.68 238.121,268.592 203.319,248.499 220.593,238.526 220.593,218.435 185.803,198.337 "
         stroke-miterlimit="10" /><polygon
         style="fill:#b4beff;stroke:#1a171b;stroke-width:1.73450005;stroke-linecap:round;stroke-linejoin:round;stroke-miterlimit:10"
         id="polygon274"
         points="394.652,318.895 394.781,338.472 359.98,358.563 325.183,358.563 272.982,329.011 272.982,308.921 307.783,288.829 342.581,288.829 359.981,298.873 325.183,318.966 342.58,329.011 377.381,308.919 "
         stroke-miterlimit="10" /><polygon
         style="fill:#b4beff;stroke:#1a171b;stroke-width:1.73450005;stroke-linecap:round;stroke-linejoin:round;stroke-miterlimit:10"
         id="polygon276"
         points="621.059,348.656 621.188,368.233 586.387,388.325 551.589,388.325 499.389,358.773 499.389,338.683 534.19,318.591 568.988,318.591 586.389,328.636 551.589,348.728 568.986,358.773 603.787,338.682 "
         stroke-miterlimit="10" /><polygon
         style="fill:#b4beff;stroke:#1a171b;stroke-width:1.73450005;stroke-linecap:round;stroke-linejoin:round;stroke-miterlimit:10"
         id="polygon278"
         points="655.972,349.023 725.57,308.84 690.77,288.749 673.369,298.794 673.369,278.7 638.444,258.538 568.975,298.794 603.745,318.87 621.188,308.85 621.188,328.922 "
         stroke-miterlimit="10" /><path
         style="fill:#b4beff;stroke:#1a171b;stroke-width:1.73450005;stroke-linecap:round;stroke-linejoin:round;stroke-miterlimit:10"
         id="path280"
         d="m 429.58,238.599 -34.799,0 -34.8,20.165 0,20.02 52.069,30.063 34.802,0 34.926,-20.167 0,-19.944 -52.198,-30.137 z m 17.418,50.47 -34.801,0 -17.047,-10.249 0,-20.092 34.428,-0.185 17.42,10.191 0,20.335 z"
         stroke-miterlimit="10" /><polygon
         style="fill:#b4beff;stroke:#1a171b;stroke-width:1.73450005;stroke-linecap:round;stroke-linejoin:round;stroke-miterlimit:10"
         id="polygon282"
         points="238.121,208.463 272.918,208.463 307.718,228.553 342.519,208.463 307.719,188.371 307.719,168.278 272.918,148.187 255.953,157.982 255.953,178.218 220.904,178.218 203.319,188.371 "
         stroke-miterlimit="10" /></g></g></svg>